
<global>
amp_veltrack=0
ampeg_release=0.35
</global>

<group>
group_label=PP
lpc_hicc1=42
lpc_locc1=0

<region>
hikey=A5
hivel=127
lokey=G#5
loop_end=268416
loop_mode=loop_continuous
loop_start=98184
loop_xfade=32309
lovel=1
lpc=FW/jQICChsEsFoJBi//cwK5PBz9Z5TW/DKPaP+LyKb8kJn+8oBKovrarCz5mDQY/XloJv4lcHz2i7tE+b2CQv4jf4j9p34S/tpKSPJc2Gz91/gK/sXLqvk8qvT/9Y36/
lpc_rms=-54.81
offset=12697
pitch_keycenter=A5
sample=Violin1Solo_harmonic_PP_A3.opus
</region>

<region>
hikey=A6
hivel=127
lokey=G#6
loop_end=268313
loop_mode=loop_continuous
loop_start=98147
loop_xfade=32296
lovel=1
lpc=6ClUQekD8ME6QfxBkF6ZwS7HJEFo/wrBu6jBQFIaOcAOhsc/j6ILP6o2VcCscDpAj4bcP6YD6MBymKVA8xmTPzC2b8CI5xhAYO8CPrYNmb9k0ExAg/d5wLDwZkBmYOG/
lpc_rms=-46.36
offset=8207
pitch_keycenter=A6
sample=Violin1Solo_harmonic_PP_A4.opus
</region>

<region>
hikey=A7
hivel=127
lokey=G#7
loop_end=266969
loop_mode=loop_continuous
loop_start=97655
loop_xfade=32134
lovel=1
lpc=W9IcQbx4jsGDl3RBek3+wHT/XUBkBCXAUn0pQCtDusCtSvxAcg2WwAZPkz+2ALK/C59iQFrUXsDAHe8/12XgP/Ulo8AZYcRAYfJpwK4nsT8sn5LAY6+7QIwJVcBiOZ4/
lpc_rms=-49.42
offset=2875
pitch_keycenter=A7
sample=Violin1Solo_harmonic_PP_A5.opus
</region>

<region>
hikey=A8
hivel=127
lokey=G#8
loop_end=288252
loop_mode=loop_continuous
loop_start=105440
loop_xfade=34696
lovel=1
lpc=DAiEQPRA+sDuXNVAHkZqwEELwj/HPR+/jzuTPkkFWL4iXMI/Hgzuvwwdsb/jl0JALV+Xvyrf1L4VwjM/s8z8viL2rD4dXai9k4u7vhSmWbwAMxc/PGXfvUIbq74ZEi0+
lpc_rms=-60.30
offset=3201
pitch_keycenter=A8
sample=Violin1Solo_harmonic_PP_A6.opus
</region>

<region>
hikey=B5
hivel=127
lokey=A#5
loop_end=287636
loop_mode=loop_continuous
loop_start=105215
loop_xfade=34622
lovel=1
lpc=6MzOQNI9ccFtgW9Bg0DXwAls4z52YIe+3YGWPyNlqr61kYq+EQoBPY0j674DYjs/OrBgvmiZQj0dFzo9c9OXv9KXBUBY4n2/znHXPZmrAL02R5u90leAP2I22b9l2TA/
lpc_rms=-55.27
offset=11259
pitch_keycenter=B5
sample=Violin1Solo_harmonic_PP_B3.opus
</region>

<region>
hikey=B6
hivel=127
lokey=A#6
loop_end=261147
loop_mode=loop_continuous
loop_start=95526
loop_xfade=31433
lovel=1
lpc=eIg5QWC1q8HJcZhBWWQnwcCe2EDuU8LAtD9SQDXtL8BOJFVAlBL2vyoAED/eR7I+8374wKfNOUHVH7rAjQ8Dv5cvzj8ALdq9J4PePqeD6j+Yoe2/r42tvkoNuz/vPHy/
lpc_rms=-45.52
offset=4318
pitch_keycenter=B6
sample=Violin1Solo_harmonic_PP_B4.opus
</region>

<region>
hikey=B7
hivel=127
lokey=A#7
loop_end=286400
loop_mode=loop_continuous
loop_start=104763
loop_xfade=34473
lovel=1
lpc=FFO/QE+yJcFJiQZB1ft+wBKH6T8iPeC/b7W1vsAQ4j+QGka/0Yccv/g5Zz9d1zs+HZ6svyhj3T8QO9W+RYMjP6pPZr8oylu+8K6Lv8nhKEBDkgXAeOUJvr/CtD9/XPu+
lpc_rms=-55.35
offset=26681
pitch_keycenter=B7
sample=Violin1Solo_harmonic_PP_B5.opus
</region>

<region>
hikey=B8
hivel=127
lokey=A#8
loop_end=251296
loop_mode=loop_continuous
loop_start=91922
loop_xfade=30248
lovel=1
lpc=IV+KQJAzCMFOjvVATlCVwDBnHECoMaq/5EkPP39vHj+fBvm+UH4TwGu1XUAI/7e/IlCUvkrkRz7+xRU/su6ovkUiWL6JJbu+0WEiP4WOvT570oa/gtxCP5Ngmz0TqVy+
lpc_rms=-58.42
offset=12453
pitch_keycenter=B8
sample=Violin1Solo_harmonic_PP_B6.opus
</region>

<region>
hikey=C#6
hivel=127
lokey=C6
loop_end=286657
loop_mode=loop_continuous
loop_start=104857
loop_xfade=34504
lovel=1
lpc=lTzyQLR5lMEIvZxBILwiwfUH7T+oi7O+X0eUP1J7Er9vFAQ/l3VCv61PEb1uaHo/yJA9v4lEDL4gGPA+EfqPv9H/E0D5l9W/l5rgPk4N1T0LNbq+fs3nvr7tGD+WcVW9
lpc_rms=-52.21
offset=18882
pitch_keycenter=C#6
sample=Violin1Solo_harmonic_PP_C#4.opus
</region>

<region>
hikey=C#7
hivel=127
lokey=C7
loop_end=284508
loop_mode=loop_continuous
loop_start=104071
loop_xfade=34245
lovel=1
lpc=qra7QDuoLMHYzR1BGJSywI4BJUC8MQXANxu5Px2IXb8I07U/14qTv7uV0j4epFrATKiwQPwNk8D7MBVAzewQvtVETj1rwcI+zQKGvk8rF7/X1os/Rnzxv9KyCUAXvji/
lpc_rms=-53.12
offset=8611
pitch_keycenter=C#7
sample=Violin1Solo_harmonic_PP_C#5.opus
</region>

<region>
hikey=C#8
hivel=127
lokey=C8
loop_end=283924
loop_mode=loop_continuous
loop_start=103857
loop_xfade=34175
lovel=1
lpc=f0pbQeCvxsH+b6dBVBwqwdFkfUB94qHAUUmhQGghv79OG7C/BgljP+guvj6y9dS/guSVQN5mpcAkWKlA+XU/v7xXHcGqykpBLpW9wG9eML+JhZw/lUBsPynquL8dU10/
lpc_rms=-47.99
offset=13450
pitch_keycenter=C#8
sample=Violin1Solo_harmonic_PP_C#6.opus
</region>

<region>
hikey=D#6
hivel=127
lokey=D6
loop_end=261147
loop_mode=loop_continuous
loop_start=95526
loop_xfade=31433
lovel=1
lpc=B11qQWPu88ETUfJBtMKVwe38JEHNLRHBFUPbQLngfMAZADBAr7IWv3w5asDRurxAYsaHvwNWa8Cefm1AaUC+vyNyxT+8kOy/CjV7v6AyBsCwo7pAtKSPwBXH1z6nUQFA
lpc_rms=-46.01
offset=2491
pitch_keycenter=D#6
sample=Violin1Solo_harmonic_PP_D#4.opus
</region>

<region>
hikey=D#7
hivel=127
lokey=D7
loop_end=288198
loop_mode=loop_continuous
loop_start=105421
loop_xfade=34690
lovel=1
lpc=IH/cQGMsTMHA6zRB+LGwwEwOPUDDrGPAFKZJQLExGsCVWURAGVB5wEE4ED+x4E9A9B5VwEnOyD5x2bY/DcWBvvsshb++Rm8/3mwNv0b79b7M0QFA0cQMwCHLiD9Rwfg+
lpc_rms=-53.11
offset=8648
pitch_keycenter=D#7
sample=Violin1Solo_harmonic_PP_D#5.opus
</region>

<region>
hikey=D#8
hivel=127
lokey=D8
loop_end=288252
loop_mode=loop_continuous
loop_start=105440
loop_xfade=34696
lovel=1
lpc=i+1aQHKxt8C6JYtAqs8YwGzMnj+u00i/bBRsP02evL+aiaE/O2mZvr2/hL4TFAM/68ebPuxNEb8uzra/HjcMQCnUbb/L9jA+c4szPovCb7+cMp0/0D/3vhGe6T2Ke8y9
lpc_rms=-59.85
offset=11239
pitch_keycenter=D#8
sample=Violin1Solo_harmonic_PP_D#6.opus
</region>

<region>
hikey=F6
hivel=127
lokey=E6
loop_end=274540
loop_mode=loop_continuous
loop_start=100425
loop_xfade=33046
lovel=1
lpc=jJnOQGq1VMHdXlFBEP0GwSQlr0BYHYzA1iEwQG47zL/Pk3w/zBB4vp5Jgb/iFsw/8ADcvoAdC7+ijGw/AV2kvyAbzT8BrHnA2JCSQCm0379FHtC+KojNPsYltD7Io6w7
lpc_rms=-52.26
offset=5137
pitch_keycenter=F6
sample=Violin1Solo_harmonic_PP_F4.opus
</region>

<region>
hikey=F7
hivel=127
lokey=E7
loop_end=274379
loop_mode=loop_continuous
loop_start=100366
loop_xfade=33026
lovel=1
lpc=ONPqQPqbVMGQSTRBley7wDLrSkAiA0HAjY3WP+iWsD4/yEW/szDQv1fUP0DRMBHAt8OEP7Opl7+DdBtAKjwKwCi1fT8C5bC/8p5GQPsnLMASoco/uXofvxFK2j+BePW/
lpc_rms=-51.98
offset=18251
pitch_keycenter=F7
sample=Violin1Solo_harmonic_PP_F5.opus
</region>

<region>
hikey=F8
hivel=127
lokey=E8
loop_end=288252
loop_mode=loop_continuous
loop_start=105440
loop_xfade=34696
lovel=1
lpc=Dk2bQOS5CsH5+NlAUTZewN06kz84g/C9zClVPkQ6Ur/PRl4/XcpkvkGH1T4PyBE/WSj7v3L8jL9iqm1AhK8NwJR8AT+Ib449LUrOvJZNjjsp7eE9kSimPgYRWL/geZM+
lpc_rms=-58.32
offset=13861
pitch_keycenter=F8
sample=Violin1Solo_harmonic_PP_F6.opus
</region>

<region>
hikey=G5
hivel=127
lokey=C5
loop_end=277629
loop_mode=loop_continuous
loop_start=101555
loop_xfade=33417
lovel=1
lpc=PjAsQZWNzMEjZMJBn+UhwZq3gj+3Ayy/0r4RQJp4CcDqS/g/kIqDv/1+ib8rYydApWZgvyjFeb8FKAU/I4EYv29goT/bxzy+niD5vWjtuL2pDz09/907v8GxD0Aww7i/
lpc_rms=-51.62
offset=12285
pitch_keycenter=G5
sample=Violin1Solo_harmonic_PP_G3.opus
</region>

<region>
hikey=G6
hivel=127
lokey=F#6
loop_end=256214
loop_mode=loop_continuous
loop_start=93721
loop_xfade=30840
lovel=1
lpc=L6RgQQZ67MFXh/NBa46ewR9uP0HaURPB2tCuQDBspr8v+1Y+ZQ8Wv5Kgpr/P/mRAXMIcwL7AYD+6ewu/ccO7wHi8FkFmJmrAj/B3wG3yy0CASlXAi4PKP/pxh78F5rM/
lpc_rms=-46.23
offset=11358
pitch_keycenter=G6
sample=Violin1Solo_harmonic_PP_G4.opus
</region>

<region>
hikey=G7
hivel=127
lokey=F#7
loop_end=287420
loop_mode=loop_continuous
loop_start=105136
loop_xfade=34596
lovel=1
lpc=KMuJQJ6e2MDR+YdAQYBVvyGeFb/+n4C+2cqpP8+d9r/ZGNE+/UAOQOrLPsBpSvA/armxvjj3Tr9rtew/5+IHwC8ghz+Pmv0+f9Zpv8Fc9D4JBF0/T7s3v7gPkL/8TGk/
lpc_rms=-57.07
offset=16027
pitch_keycenter=G7
sample=Violin1Solo_harmonic_PP_G5.opus
</region>

<region>
hikey=G8
hivel=127
lokey=F#8
loop_end=288252
loop_mode=loop_continuous
loop_start=105440
loop_xfade=34696
lovel=1
lpc=Uq2WQM5VDsGCquxArPpbwEdQMz9gn7E9czrevZsbxL5pjM0/N4mLvqdh7r+okVy+RErlPy/REr8Mp/29TfTrvsr9Pz8R0q4+580lv4Cuib6ObgY+IuTUPiY/p77Id9Q9
lpc_rms=-60.05
offset=2197
pitch_keycenter=G8
sample=Violin1Solo_harmonic_PP_G6.opus
</region>
</group>

<group>
group_label=MF
lpc_hicc1=84
lpc_locc1=43

<region>
hikey=A5
hivel=127
lokey=G#5
loop_end=245673
loop_mode=loop_continuous
loop_start=89865
loop_xfade=29571
lovel=1
lpc=glzXQAT/bMGGqXZBwEYLwfEzNkCAXo2/mkjkP4Xrq79LNx8+DP15P4ixfL+A03o/pvpfvtxah7/AuhRAZEILwP5N4j+yTp2/2gGPP+oYjL+T5xpAZDVvwJcGfUBHSfq/
lpc_rms=-44.96
offset=1587
pitch_keycenter=A5
sample=Violin1Solo_harmonic_MF_A3.opus
</region>

<region>
hikey=A6
hivel=127
lokey=G#6
loop_end=242292
loop_mode=loop_continuous
loop_start=88629
loop_xfade=29164
lovel=1
lpc=sfnRQT2EHsI6w+tBcBozwbyWmkCdSKbAmgGTQGHKu79w+C9AgVguQBoXlMAespc+J3HgQGFClMFau9tA4ypCQSj6dMHI2wtBPDWOv9QXFkDXi2bAJ/uuQAea88Dmk7hA
lpc_rms=-29.88
offset=4208
pitch_keycenter=A6
sample=Violin1Solo_harmonic_MF_A4.opus
</region>

<region>
hikey=A7
hivel=127
lokey=G#7
loop_end=217074
loop_mode=loop_continuous
loop_start=79404
loop_xfade=26128
lovel=1
lpc=sZGzQa6n4cF+sMVBFiruwFcUokCjuFrAGd6bQKz7HcFOigVBwwWJv+ZkLMDal+c+DdCwQEMNucCkQdc/LQa7QP0wAsHa8ihBlPnTwGG1j0CpdT7B0AApQeGawsC0YUPA
lpc_rms=-31.10
offset=544
pitch_keycenter=A7
sample=Violin1Solo_harmonic_MF_A5.opus
</region>

<region>
hikey=A8
hivel=127
lokey=G#8
loop_end=254336
loop_mode=loop_continuous
loop_start=93034
loop_xfade=30614
lovel=1
lpc=2RiwQKS5ssDHuW5AdHSgvySQbT/00Zq/dOeHP/JiKL/MUAZAeICAP1oIxMCCy51ADuMOv8Ldqb/65FQ//UuMPtK4uD0XFQw/VyiQv9hUH7/cUbg/o/jDvhaUML84TV4/
lpc_rms=-43.35
offset=7619
pitch_keycenter=A8
sample=Violin1Solo_harmonic_MF_A6.opus
</region>

<region>
hikey=B5
hivel=127
lokey=A#5
loop_end=222407
loop_mode=loop_continuous
loop_start=81355
loop_xfade=26770
lovel=1
lpc=gBigQZ5fH8LoHh9CRT24wbe5GEFYHL/A2SDLQJJycMCWFK6+FRt3QECPjsAx7h5A7hvVPwZMp8BdeAJBpRICwb6tkUA6Apq+IaNGvVBxnr9WkRxAXM1vv+Jy1r8RRsa/
lpc_rms=-35.04
offset=4443
pitch_keycenter=B5
sample=Violin1Solo_harmonic_MF_B3.opus
</region>

<region>
hikey=B6
hivel=127
lokey=A#6
loop_end=219623
loop_mode=loop_continuous
loop_start=80336
loop_xfade=26435
lovel=1
lpc=WjWXQW7V2sEeS6hBfogFwSzSpkBLCbvA+9ZaQB8wdsCcTKdA/3sGwIPrSz8m8b8/iL5VwWzigUEZ6uXA8LwQwF8RlkDDVBLAWPNRQJyjFL4X8mQ/YIlTwJmWVkB7TyTA
lpc_rms=-35.32
offset=6630
pitch_keycenter=B6
sample=Violin1Solo_harmonic_MF_B4.opus
</region>

<region>
hikey=B7
hivel=127
lokey=A#7
loop_end=251816
loop_mode=loop_continuous
loop_start=92112
loop_xfade=30310
lovel=1
lpc=54VoQTg7hcHpmEVBmKOtv68Ncj2Ar/W975R0wGDol0DgR0jA3WzKP9nwgb/5qQZA9+m6vwUSAUBByAs+J+0SQK5kkL8c+YI/1AzvwNw95EAFLAbA7pKFwFzHUEBsaBM/
lpc_rms=-35.28
offset=1690
pitch_keycenter=B7
sample=Violin1Solo_harmonic_MF_B5.opus
</region>

<region>
hikey=B8
hivel=127
lokey=A#8
loop_end=221753
loop_mode=loop_continuous
loop_start=81116
loop_xfade=26692
lovel=1
lpc=VCqaQJJiocCvB0RAH1+LvqAn1L7bAck32bq6P6CZBr7SD74+R+tQwHSLbEBhReO/JioFP6qbTT4N3Qs/k1TgvvasJ75jDPA+y15Yv32pBz+x36E+MPYtvzTZbD8jvgi/
lpc_rms=-43.43
offset=3469
pitch_keycenter=B8
sample=Violin1Solo_harmonic_MF_B6.opus
</region>

<region>
hikey=C#6
hivel=127
lokey=C6
loop_end=221594
loop_mode=loop_continuous
loop_start=81057
loop_xfade=26673
lovel=1
lpc=0W/nQMDVbsFD13xB6YsWwdO2V0B8JKa/oWUCQMwIx79u6Um+ULbLPyG4ir/qB9I+SpT1PU9GL7+2hA9ACvxMwPdkJkCUxUO/4IZEPpxsKb/UGo0/GnFMwMQ1LkCBh4a/
lpc_rms=-41.65
offset=528
pitch_keycenter=C#6
sample=Violin1Solo_harmonic_MF_C#4.opus
</region>

<region>
hikey=C#7
hivel=127
lokey=C7
loop_end=242320
loop_mode=loop_continuous
loop_start=88639
loop_xfade=29167
lovel=1
lpc=CPMAQVBVLcFVIfFACaotwCScRD8Cs82/jQC7PxD8LD7luiU/z9WYPsHlLL8v4IHAQLPcQI5c48B/SIlAduXIv4PWMUB1vhnAYDC3PwYx17+N+uk/KAdDwC8n/j+cnlg/
lpc_rms=-44.20
offset=945
pitch_keycenter=C#7
sample=Violin1Solo_harmonic_MF_C#5.opus
</region>

<region>
hikey=C#8
hivel=127
lokey=C8
loop_end=251643
loop_mode=loop_continuous
loop_start=92049
loop_xfade=30290
lovel=1
lpc=320HQeb3JMHDUABBnkNiwHlMJ0BxAY3AZ6JoQJTyor/SXcK+yCaNP+RypL3Xg+i/6glMQEGdGsA2UypAnntZPDMqd8DLpXpAYFDvvy5VgD3l9s6/EjURQILYw7/CcIk/
lpc_rms=-41.54
offset=760
pitch_keycenter=C#8
sample=Violin1Solo_harmonic_MF_C#6.opus
</region>

<region>
hikey=D#6
hivel=127
lokey=D6
loop_end=220091
loop_mode=loop_continuous
loop_start=80508
loop_xfade=26492
lovel=1
lpc=slBxQfKZwME1/ptBdGwBwesmc0Azaq/APfSHQO5/UL6mpRnAY5yIQOuIe8C2oS1AH8+kP8M+csAbdKpA1AWWwNB4lUDPJUrA5sOhPxw6AsGpqv9AeHowv/X9qcBfP49A
lpc_rms=-35.54
offset=638
pitch_keycenter=D#6
sample=Violin1Solo_harmonic_MF_D#4.opus
</region>

<region>
hikey=D#7
hivel=127
lokey=D7
loop_end=224861
loop_mode=loop_continuous
loop_start=82253
loop_xfade=27066
lovel=1
lpc=HJYSQT5+S8EWmg1BXPKVvwqbbL9ln0m/R/bWP1WIMb+iGIs/A7VxvyMMgsCeFOFAEpmkwKg9iT92F40/86BiPYj7/r6EAwE/X0qjPkjhj8CEm+ZAdcCOwKB0Oj9pDZo/
lpc_rms=-41.89
offset=1215
pitch_keycenter=D#7
sample=Violin1Solo_harmonic_MF_D#5.opus
</region>

<region>
hikey=D#8
hivel=127
lokey=D8
loop_end=255953
loop_mode=loop_continuous
loop_start=93626
loop_xfade=30808
lovel=1
lpc=Jzy4QBN0ycC5p6FAooLvv09TIj9vO4m/JWboP42Ou79m9WI/e+35vjY4OL2bZIg//T9AvjT33D/Gsn3ATAYZQAstJD4mbq2/qKyIP+YIAL+jv/49r3OZvmhJlL0UBRM/
lpc_rms=-43.23
offset=4693
pitch_keycenter=D#8
sample=Violin1Solo_harmonic_MF_D#6.opus
</region>

<region>
hikey=F6
hivel=127
lokey=E6
loop_end=216659
loop_mode=loop_continuous
loop_start=79252
loop_xfade=26079
lovel=1
lpc=EAkjQbK1hMFAOFhBgZ7EwFQ/QEA4iDPAvd7yPwTrib/rdPg+00KHPwJmv7+Z8bI/uj4EP1jJ8r9IbVBAw0Y+wJKYEkCSxvbAqr4GQZbOTcCpevu+Qr+VPu9yiT/7w9s9
lpc_rms=-37.91
offset=1591
pitch_keycenter=F6
sample=Violin1Solo_harmonic_MF_F4.opus
</region>

<region>
hikey=F7
hivel=127
lokey=E7
loop_end=250812
loop_mode=loop_continuous
loop_start=91745
loop_xfade=30189
lovel=1
lpc=HN66QIel4cBEg6lAcrTCv4HIKD8TYR2/RBC+P236Jb8ozMu/+9HkP/Hepz04lKO/w4euP+aTkr/ug1k/yCpIv1skB0BSzUbAkTPaP3VdET+eVBG/8J7CPUVk2z8UM0a/
lpc_rms=-44.06
offset=431
pitch_keycenter=F7
sample=Violin1Solo_harmonic_MF_F5.opus
</region>

<region>
hikey=F8
hivel=127
lokey=E8
loop_end=248805
loop_mode=loop_continuous
loop_start=91011
loop_xfade=29948
lovel=1
lpc=BrAYQTRpHcHDqMlAEwALwCPyDD9jsys/SrKdv6yNh76NBdI/hmauPzuNZL6VIxFAatk8wAqaq8CG+gRBP9y/wJGVckAUnPO/kFOmP4T9OD9femY/+Entv2P4IT1dpRi/
lpc_rms=-38.82
offset=2292
pitch_keycenter=F8
sample=Violin1Solo_harmonic_MF_F6.opus
</region>

<region>
hikey=G5
hivel=127
lokey=C5
loop_end=221527
loop_mode=loop_continuous
loop_start=81033
loop_xfade=26664
lovel=1
lpc=dwo1QTKx3MGidwFCi1ywwf9hF0FrqyzASQogQGdfQsDPDhtAg2wXPumdg78NC8M/8kZ4v+2rfDrRkA5AA3BxwGhpgUB2VCzAOtHdP3OkMD9vhoy/jOREPi3VGT+GCo0+
lpc_rms=-37.16
offset=3839
pitch_keycenter=G5
sample=Violin1Solo_harmonic_MF_G3.opus
</region>

<region>
hikey=G6
hivel=127
lokey=F#6
loop_end=252242
loop_mode=loop_continuous
loop_start=92268
loop_xfade=30362
lovel=1
lpc=8+2UQUDn68Hyt7pBObQUwZpJUEC5T4zAmrAkQFXP0j6NZn29wRTIPg6dQj1frUQ/rs3DP/fsYsBvtOVAN8WZwZSPikHCs1vAFmjGwIN1xkB3W3u/d+oFQMvC8r9ZhWo/
lpc_rms=-33.07
offset=106
pitch_keycenter=G6
sample=Violin1Solo_harmonic_MF_G4.opus
</region>

<region>
hikey=G7
hivel=127
lokey=F#7
loop_end=245279
loop_mode=loop_continuous
loop_start=89721
loop_xfade=29524
lovel=1
lpc=pRqwQBsWucBt84dAVHHNv4/f8j62hhO/ny+dP1SkeL/Gp5e/Qbs5QDT2M8CgidI/FiO+vmY00750VqY/Gh/dv9NP4D9C+Tq/DeofPn2huz7iHvA+X9jDPVbb1b9Gize+
lpc_rms=-45.11
offset=3588
pitch_keycenter=G7
sample=Violin1Solo_harmonic_MF_G5.opus
</region>

<region>
hikey=G8
hivel=127
lokey=F#8
loop_end=259946
loop_mode=loop_continuous
loop_start=95086
loop_xfade=31289
lovel=1
lpc=Sy8JQZmlDMH0lc5A/OccwKYXKz3y9b8/bawfwK/f0j9vG6a9b+7nPydwSkCeWgnBqd6KQCU5bj9X0irAzmDyP4qwyb+18Kw/p5biPvSGyr4a/Jk/BcBswGEEdkB/duC/
lpc_rms=-39.42
offset=7562
pitch_keycenter=G8
sample=Violin1Solo_harmonic_MF_G6.opus
</region>
</group>

<group>
group_label=FF
lpc_hicc1=127
lpc_locc1=85

<region>
hikey=A5
hivel=127
lokey=G#5
loop_end=227785
loop_mode=loop_continuous
loop_start=83322
loop_xfade=27418
lovel=1
lpc=58EwQbW8rsHKirFB6Vk2we9TjkD8yVrAjP2mQGXwOsBv444/mqfqP5IZB8B71xNA5aSfvLfJdb/ZZhdApFUHwC7fS0A5eTzAOHONQFG4V8CIy4lALtanwK5Ev0AQfArA
lpc_rms=-30.77
pitch_keycenter=A5
sample=Violin1Solo_harmonic_FF_A3.opus
</region>

<region>
hikey=A6
hivel=127
lokey=G#6
loop_end=219264
loop_mode=loop_continuous
loop_start=80205
loop_xfade=26392
lovel=1
lpc=zc0xQVaOjcGwW2VBC5Y0wH7p2L7QAH6/AxkmQLbFK791blm/nzvxP8tZiL+MgOk98SVpQJSiAsHzXVRAWK3XQGpuJcEszp5AOlTPPlR2FT+J9em/Eb43QOSTk7/ahIc/
lpc_rms=-30.64
pitch_keycenter=A6
sample=Violin1Solo_harmonic_FF_A4.opus
</region>

<region>
hikey=A7
hivel=127
lokey=G#7
loop_end=219648
loop_mode=loop_continuous
loop_start=80345
loop_xfade=26438
lovel=1
lpc=Yb/2QBG9tsDI9q1A35izv+XXLkBRPiPA0TcdQNvZZcB2sj5AKyXKv0+5xj98ARC/zF0xP9sNgj81o5+/hBIiPzgX3z37S9U+wf88P3onwD8NZYLApiAIQOVHFz8pheW/
lpc_rms=-30.88
offset=413
pitch_keycenter=A7
sample=Violin1Solo_harmonic_FF_A5.opus
</region>

<region>
hikey=A8
hivel=127
lokey=G#8
loop_end=224178
loop_mode=loop_continuous
loop_start=82002
loop_xfade=26984
lovel=1
lpc=PAuTQGiQZ8BjnxdATY8lvh5MYD9LKoG/NBVSP6B9mD2jIaQ/DckMP60fkMDjQ3dAKfSjOxzaqL8MPgM/6ShBPz8IaD4p/dU9u5UpvxeAyL06E6Q/zZhqv6jcyb7pJow/
lpc_rms=-39.61
offset=133
pitch_keycenter=A8
sample=Violin1Solo_harmonic_FF_A6.opus
</region>

<region>
hikey=B5
hivel=127
lokey=A#5
loop_end=227285
loop_mode=loop_continuous
loop_start=83139
loop_xfade=27358
lovel=1
lpc=qfSaQc0kCMLZsA5CfezCwcioVUEyOOnARqOvQJ+yVcAStcM/6AHTP5wpOsBVDxxA3VqjPyCBcMCjc4NANzMBwAormD/+c7G++EMBP9f79T7Gry2+rz/iPg8bPj/wBp7A
lpc_rms=-25.61
offset=611
pitch_keycenter=B5
sample=Violin1Solo_harmonic_FF_B3.opus
</region>

<region>
hikey=B6
hivel=127
lokey=A#6
loop_end=220484
loop_mode=loop_continuous
loop_start=80651
loop_xfade=26539
lovel=1
lpc=OslkQTe/msEG0UtBmlwawFwVoEAE7u/AJNerQPrhzb+x7BtAy/y5P8ctXcCwbIZAcWQ7wWM5UUGLkHTAKDIhwCvCzb78FmVARg85Pg9m8r/XhhNAF4uDwEqyqUCnWDHA
lpc_rms=-30.12
offset=258
pitch_keycenter=B6
sample=Violin1Solo_harmonic_FF_B4.opus
</region>

<region>
hikey=B7
hivel=127
lokey=A#7
loop_end=239236
loop_mode=loop_continuous
loop_start=87511
loop_xfade=28796
lovel=1
lpc=gPBPQecdV8EQ9BtBXW0qv2nRBj/GZcW+ExAUwKIrLUBIJvC/3bcKQE2zlL9wZ5c/E8ljvzCU4j/y+2Y/Vy9WPrwpsD+LXrE/fPwJwWm4CEGt0zTA3WkGwMD7ST+qPQBA
lpc_rms=-29.99
offset=643
pitch_keycenter=B7
sample=Violin1Solo_harmonic_FF_B5.opus
</region>

<region>
hikey=B8
hivel=127
lokey=A#8
loop_end=225254
loop_mode=loop_continuous
loop_start=82396
loop_xfade=27113
lovel=1
lpc=9bblQOaxzcCm8GNA69o/PtAGcD8F+YK/B0IOQArpaz++J5u/u4yZwGKQr0A4Mua/nNjgPejIVT7WiH4/UH4ov7NBQr9WtNI/M8tQvxFexD0Fq3Q9g9Tpvm3lmD5HXhG/
lpc_rms=-36.48
offset=781
pitch_keycenter=B8
sample=Violin1Solo_harmonic_FF_B6.opus
</region>

<region>
hikey=C#6
hivel=127
lokey=C6
loop_end=224725
loop_mode=loop_continuous
loop_start=82203
loop_xfade=27049
lovel=1
lpc=SS0VQT05jsGILJxBNWZbweS6EEHJitTAuzm8QF9ejcDA1jRAqulwvx8MYD/C3ZG/6Z3hP0AcC8C2aFFAFrNdwBs8SUDy5gXAUUz+P06MGsBJ6oFA19oCwdgKzkDfcTDA
lpc_rms=-32.26
offset=28
pitch_keycenter=C#6
sample=Violin1Solo_harmonic_FF_C#4.opus
</region>

<region>
hikey=C#7
hivel=127
lokey=C7
loop_end=230020
loop_mode=loop_continuous
loop_start=84139
loop_xfade=27687
lovel=1
lpc=xcWeQD3gk8C4nSJA5MbevRjA776dTTk+66ZDP5RrAL+R4N2+wSsaQIi8Tb8LkGfAm8xnQD00J8DAIq8/2xNxPhcFGj5g/ii/xY/UP3NPB7+W5pK/AkyzvhAjjz/t2FM+
lpc_rms=-39.18
pitch_keycenter=C#7
sample=Violin1Solo_harmonic_FF_C#5.opus
</region>

<region>
hikey=C#8
hivel=127
lokey=C8
loop_end=261074
loop_mode=loop_continuous
loop_start=95499
loop_xfade=31425
lovel=1
lpc=y9oTQSg9FsH4d6dAk4Y+PZ2en74+6CrA+0AVQPS3pL9Rj2o+UeR0vo2sgT5bIYu/TmbGP9nSrr11VhE/tUEbQMoq+MDkfcNAKUF2vxwtFMD2wR8+hz3bPy+kqr/EIxs+
lpc_rms=-35.11
offset=1689
pitch_keycenter=C#8
sample=Violin1Solo_harmonic_FF_C#6.opus
</region>

<region>
hikey=D#6
hivel=127
lokey=D6
loop_end=220725
loop_mode=loop_continuous
loop_start=80740
loop_xfade=26568
lovel=1
lpc=1/hUQd0HnMF0/mtBRUxWwMRkM79l1BTAUQllQEoUCsAuh5Q/TZ8+P0x6+755+S8/3CpPPwvFer96Fw9A+JTev1eRA0CgSre/DlE4QEiyQsG25jdBezUZwOO7rsAgNKNA
lpc_rms=-30.78
pitch_keycenter=D#6
sample=Violin1Solo_harmonic_FF_D#4.opus
</region>

<region>
hikey=D#7
hivel=127
lokey=D7
loop_end=226654
loop_mode=loop_continuous
loop_start=82908
loop_xfade=27282
lovel=1
lpc=8CvgQApDDcEDaL9Ad+jDPXFftT33Zse/9HDKPwPecz29ZaE/xemevzRHHsBCdYlAYrMOwJZ7R79My40/WUEkP6u1Fb//6FU+Mb5UPu5lGsBkApNA2SQqwGKW2r6WhfI/
lpc_rms=-36.64
pitch_keycenter=D#7
sample=Violin1Solo_harmonic_FF_D#5.opus
</region>

<region>
hikey=D#8
hivel=127
lokey=D8
loop_end=217880
loop_mode=loop_continuous
loop_start=79699
loop_xfade=26225
lovel=1
lpc=x+aPQEBshcDWFS1A+HXWvht+Aj9GyIG//zy0P5+lkb+JTA0/lUkGvqNdDT6Uggs/i3TjvVea3T/9kmrAuhDYP6Ftdz9Rnai/vJgAPzahhD5BXIa+agvKPQbDbjyARjE+
lpc_rms=-40.15
offset=2567
pitch_keycenter=D#8
sample=Violin1Solo_harmonic_FF_D#6.opus
</region>

<region>
hikey=F6
hivel=127
lokey=E6
loop_end=224155
loop_mode=loop_continuous
loop_start=81994
loop_xfade=26981
lovel=1
lpc=8vFXQRGyocEoYXNBSvSNwC/e+D/K5WrAJwdSQJCFb7/fiYg+/lOMPzFZSb9qUVw/H4Y2P41Lf7+elA1AL4gLwGqGOED0iD/BeFZOQZnDocDn5fW/rcfNP64tsT80Cg2/
lpc_rms=-29.17
pitch_keycenter=F6
sample=Violin1Solo_harmonic_FF_F4.opus
</region>

<region>
hikey=F7
hivel=127
lokey=E7
loop_end=224710
loop_mode=loop_continuous
loop_start=82197
loop_xfade=27048
lovel=1
lpc=N8JAQdG6KcH0INxAdiQwPxAVhT92ILC/iHNZQC7Ycz63E1DAO8arPynzRkDgmJfATUt8QD1WA8DBJaw/kEjXv4QEpUCtXdvA6JmPQFvnhD9+WBS+VdQRvyQvhkBwfw2/
lpc_rms=-30.88
offset=328
pitch_keycenter=F7
sample=Violin1Solo_harmonic_FF_F5.opus
</region>

<region>
hikey=F8
hivel=127
lokey=E8
loop_end=227629
loop_mode=loop_continuous
loop_start=83265
loop_xfade=27399
lovel=1
lpc=j7A8QZcxK8GM0+FAC6KNv4jY6r6glYI+D4PFPgq7r75b+Tu+0kPEPzHYnj9zexZA418QwDaw+sCbsSBBDfrYwKBpPEAiLJS+s2+/P/Uwer81nwNABar4PIN3wr6/YZa/
lpc_rms=-32.99
offset=575
pitch_keycenter=F8
sample=Violin1Solo_harmonic_FF_F6.opus
</region>

<region>
hikey=G5
hivel=127
lokey=C5
loop_end=231664
loop_mode=loop_continuous
loop_start=84741
loop_xfade=27885
lovel=1
lpc=zBc6QR6P18FhvftBpiafwUJF8UCde0DA5PCUQIVUXcDdKWw/5IEKQNIo5r8MfwpAHZTVvysnAb9G1rZA1uHZwO7UoEBWAgXAXXdGPzckLkAnpMnAE+QfQXymBMFZmoZA
lpc_rms=-29.61
offset=280
pitch_keycenter=G5
sample=Violin1Solo_harmonic_FF_G3.opus
</region>

<region>
hikey=G6
hivel=127
lokey=F#6
loop_end=272606
loop_mode=loop_continuous
loop_start=99717
loop_xfade=32813
lovel=1
lpc=rVtKQUBsgsGfGSJB+b3MvcBWi7/8lxTAI3qvPzIE4z8lhty/3LtbPwUSOz9K+8k98AF+P4y10r+TN5RAUN9OwaAyFkEiFRc/FgC/wCBuTUBIG5g/SB3bP+2HKsDihN0/
lpc_rms=-31.61
offset=547
pitch_keycenter=G6
sample=Violin1Solo_harmonic_FF_G4.opus
</region>

<region>
hikey=G7
hivel=127
lokey=F#7
loop_end=244944
loop_mode=loop_continuous
loop_start=89599
loop_xfade=29483
lovel=1
lpc=8Ki1QJmBf8CnNntAKfbfv8qKwj9VXyW/B1+vvTcxez+3xQfAPs8iQKek1r/GU3Y/RUqAvNG7yDuLL5g/6rfTvzpqBUALB8y/p2+fP7ZO4z2F+Rm+vlb2P0g9GcChC+G+
lpc_rms=-36.06
pitch_keycenter=G7
sample=Violin1Solo_harmonic_FF_G5.opus
</region>

<region>
hikey=G8
hivel=127
lokey=F#8
loop_end=257385
loop_mode=loop_continuous
loop_start=94149
loop_xfade=30981
lovel=1
lpc=Ar/wQL/PtcAmS/A/MhXIP2vME78eaBs+2weov9uLlj/Jyyk8OzP5Pzyjxz/XG83AHYUDQNtzR0BgM0DAiEKkPtudFz8kb+s+kpaVPxeHW7+MaaQ+yXEFwHbbLED+QPS/
lpc_rms=-37.32
offset=240
pitch_keycenter=G8
sample=Violin1Solo_harmonic_FF_G6.opus
</region>
</group>